<svg xmlns="http://www.w3.org/2000/svg" viewBox="0 0 800 500" role="img" aria-labelledby="title desc">
  <title id="title">Neon controller render</title>
  <desc id="desc">A glowing controller with dual thumbsticks and illuminated buttons.</desc>
  <defs>
    <linearGradient id="bg" x1="0" y1="0" x2="1" y2="1">
      <stop offset="0" stop-color="#101b11" />
      <stop offset="1" stop-color="#06231c" />
    </linearGradient>
    <linearGradient id="body" x1="0" y1="0" x2="1" y2="0">
      <stop offset="0" stop-color="#39ff9c" />
      <stop offset="1" stop-color="#b3ff4a" />
    </linearGradient>
  </defs>
  <rect width="800" height="500" rx="32" fill="url(#bg)" />
  <path d="M180 270c20-70 90-110 220-110h0c130 0 200 40 220 110l20 70c10 40-20 80-60 80h-60c-20 0-40-10-50-28l-20-36h-160l-20 36c-10 18-30 28-50 28h-60c-40 0-70-40-60-80l20-70z" fill="url(#body)" opacity="0.25" stroke="#39ff9c" stroke-width="3" />
  <circle cx="330" cy="270" r="32" fill="#13f6ff" opacity="0.6" />
  <circle cx="470" cy="270" r="32" fill="#13f6ff" opacity="0.6" />
  <circle cx="560" cy="240" r="16" fill="#39ff9c" />
  <circle cx="590" cy="270" r="16" fill="#13f6ff" />
  <circle cx="530" cy="270" r="16" fill="#b3ff4a" />
  <circle cx="560" cy="300" r="16" fill="#39ff9c" opacity="0.8" />
</svg>
